<?xml version="1.0" encoding="UTF-8"?>
<svg width="93px" height="123px" viewBox="0 0 93 123" xmlns="http://www.w3.org/2000/svg" xmlns:xlink="http://www.w3.org/1999/xlink" version="1.1">
 <!-- Generated by Pixelmator Pro 1.8 -->
 <path id="Path" d="M92.83 39.49 C92.83 46.18 91.62 49.49 89.15 49.49 L58.78 49.49 58.78 118.89 C58.78 120.4 57.73 121.42 55.55 122 52.553 122.632 49.492 122.911 46.43 122.83 43.32 122.939 40.21 122.636 37.18 121.93 35.1 121.36 34.05 120.33 34.05 118.93 L34.05 49.54 3.68 49.54 C1.22 49.54 -0 46.18 -0 39.54 -0.114 36.938 0.19 34.335 0.9 31.83 1.5 30.23 2.43 29.43 3.68 29.43 L89.15 29.43 C90.46 29.43 91.42 30.23 91.97 31.86 92.651 34.36 92.941 36.951 92.83 39.54 Z M3.68 20.16 C1.22 20.16 0 16.8 0 10.11 -0.12 7.508 0.184 4.904 0.9 2.4 1.49 0.8 2.43 0 3.68 0 L89.15 0 C90.46 0 91.41 0.81 92 2.43 92.675 4.931 92.965 7.521 92.86 10.11 92.86 16.8 91.64 20.16 89.18 20.16 Z" fill="#17bf66" fill-opacity="1" stroke="none"/>
 <path id="Rounded-Rectangle" d="M125 57 C106.775 57 92 71.775 92 90 L92 90 C92 108.225 106.775 123 125 123 L125 123 C143.225 123 158 108.225 158 90 L158 90 C158 71.775 143.225 57 125 57 Z" fill="#17bf66" fill-opacity="1" stroke="none"/>
</svg>
